<?xml version="1.0" encoding="utf-8"?>
<!-- Generator: Adobe Illustrator 21.1.0, SVG Export Plug-In . SVG Version: 6.00 Build 0)  -->
<svg version="1.1" id="Layer_1" xmlns="http://www.w3.org/2000/svg" xmlns:xlink="http://www.w3.org/1999/xlink" x="0px" y="0px"
	 viewBox="0 0 14400 14400" style="enable-background:new 0 0 14400 14400;" xml:space="preserve">
<style type="text/css">
	.st0{fill:#FFFFFF;}
	.st1{fill:#F7B74D;}
	.st2{fill:#336732;}
	.st3{fill:#326632;}
	.st4{fill:#BA150F;}
	.st5{fill:#F5B64D;}
	.st6{fill:#306632;}
	.st7{font-family:'MyriadPro-Bold';}
	.st8{font-size:177.404px;}
	.st9{letter-spacing:-4;}
</style>
<g>
	<g>
		<path class="st0" d="M7573,7441.1c-245.1,0-490.3,0-735.4,0c0-252.3,0-504.6,0-756.9c245.1,0,490.3,0,735.4,0
			C7573,6936.5,7573,7188.8,7573,7441.1z M7595,6993.6c0-1.3,0.1-2.6,0.1-3.8c0-96,0-192,0-288c0-1,0-1.9,0-2.9
			c-0.9-14.8-7.6-25.8-21-32.5c-5.7-2.8-11.8-3.6-18.2-3.6c-235.8,0-471.6,0-707.5,0c-1.1,0-2.2,0-3.4,0
			c-11.6,0.7-21.3,5.2-28.5,14.6c-5.5,7.2-7.5,15.3-7.5,24.2c0,145.7,0,291.5,0,437.2c0,1.6,0.1,3.2,0.2,4.8
			c-0.1,1.1-0.2,2.2-0.2,3.3c0,86.6,0,173.1,0,259.7c0,21.4,16,37.2,37.5,37.2c76,0.1,152,0,228,0c1,0,2.3,0.6,3-0.7
			c-0.3-1.2-1.2-1.9-2-2.7c-8.5-9.2-16-19.1-22.7-29.7c-18.7-29.9-29-62.5-30.2-97.8c-0.5-16.1,1.2-31.9,4-47.7
			c4.8-26.4,16.7-49.1,35.3-68.4c17.2-17.9,37.4-31.5,59.3-42.7c42.5-21.8,87.9-34.5,134.7-43.1c7.2-1.3,14.4-2.5,21.7-3.8
			c2.7,0.4,5.3-0.6,8-0.9c-0.3,2.1-2.3,2.6-3.6,3.5c-20.7,15-38.4,32.8-51.2,55.1c-9.3,16.2-14.9,33.6-15.1,52.4
			c-0.3,26,7.7,49.4,23.4,70.1c9.7,12.7,21.3,23.4,33.7,33.3c24.5,19.3,51.4,34.7,79.2,48.5c49.6,24.5,101.2,43.7,154.1,59.5
			c17.9,5.3,36,10.3,54.3,13.8c3.3,0.6,6.3,0.5,9.4-0.6c11.4-4.2,19.2-11.9,23-23.4c1.5-4.6,1.8-9.4,1.8-14.2c0-135.3,0-270.7,0-406
			C7595.1,6996.8,7595,6995.2,7595,6993.6z"/>
		<path class="st1" d="M7285.8,7106.4c-2.7,0.3-5.3,1.3-8,0.9c-0.8-0.7-1.7-0.8-2.6-1.1c-19.1-4.7-38.4-8.4-57.8-11.4
			c-13.9-2.2-27.9-3.8-41.8-5.3c-5.8-0.6-6-1.1-6.4-7.1c-0.1-0.8,0-1.6,0-2.4c-0.2-4.8-0.6-9.6-1.3-14.3c-1.8-11.9-2-23.8-2.6-35.7
			c-0.4-9.9-0.1-19.8-0.1-29.7c0-2.1,0-4.2-1.4-5.9c-2.7-3.2-4.2-7.1-6.2-10.8c-3.9-7.2-6.2-15.1-9.9-22.3
			c-4.9-9.6-6.4-19.9-6.5-30.6c-0.1-5.1,2.9-7.5,8-6.5c2.2,0.4,4.5,0.3,6.7,0.4c2,0.1,3.5-0.4,3.4-2.9c-0.1-1.9,1-2.4,2.7-2.4
			c4.2,0,8.3,0,12.5,0c1.8,0,3.5,0,5.1-0.8c6.2-2.9,12.4-1.1,18,1.4c3.5,1.5,6.6,2.9,10.3,2.7c1.9-0.1,4,0.3,4.5,2.1
			c1,3.8,3.6,7.2,3.7,11.2c0.1,1.6,0,3.4,1.8,4.1c1.9,0.7,3.8,0.5,5.3-1.1c2.2-2.3,4.9-4.1,6.1-7.3c0.6-1.6,1.9-2.6,3-3.7
			c1.5-1.5,2.9-1.1,4,0.5c0.7,1,1,2.7,1.9,3.2c3.6,2.1,4.7,5.9,6.4,9.3c1.9,3.6,3,3.8,5.7,0.7c1-1.1,1.6-2.4,2.1-3.8
			c0.4-1,0.4-2.2,2-2.7c1.7,1.8,3.6,2.7,6,0.5c1.3-1.2,2.7-0.7,3.6,0.8c1.4,2.3,3.7,3.6,5.9,4.8c6.5,3.7,12.6,7.6,14.6,15.6
			c0.3,1.2,4.5,3.2,5.7,2.8c2.1-0.6,1.5-2.5,1.8-4c0.7-4.7,1.2-9.5,1-14.3c0-1-0.2-2.3,0.7-2.6c3.1-1.3,2.7-4.1,3.1-6.5
			c0.3-1.9,0.9-3.7,1.5-5.5c2-6.8,3.3-13.7,0-20.5c-1.4-2.9-2-6.2-2.2-9.3c-0.5-8-4-15.1-7.5-22c-3.7-7.2-7.2-14.6-11.9-21.3
			c-3.5-5-7.6-9.2-12.7-12.7c-3.6-2.5-7.9-3.3-11.6-5.5c-6.8-4.2-14.5-5.6-22.2-6.9c-11.8-2.1-23.7-3.4-34.3-9.7
			c-4.1-2.4-8.4-4.6-12.8-6.6c-7.3-3.3-14.6-6.3-22.3-8.6c-8.7-2.6-17.2-5.9-26.2-7.7c-5.9-1.2-11.8-2.5-17.5-4.2
			c-10-3-20.3-3.9-30.6-4.4c-1.3-0.1-2.6,0-3.8-0.2c-7.4-1.1-14.8-1.9-22.4-1.8c-3.5,0-7,0-10.5-0.7c-3.2-0.6-6.6-0.4-10,0.2
			c-3.9,0.6-7.8,1.3-11.8,1.6c-6.5,0.6-12.7,2.2-19,4.1c-4.1,1.2-8.1,3.2-12.3,3.6c-4,0.4-7.9,1.2-11.8,1.7
			c-9.1,1.3-17.8,0.4-25.5-5.3c-5.9-4.4-8.5-12-4.3-19c2.6-4.3,5.9-7.9,9-11.8c4.6-5.8,11.3-8.7,17.1-13
			c6.7-4.9,10.5-11.3,11.9-19.3c0.5-2.6,0.1-5.4,0.2-8.1c0.1-5.5-2.1-10.2-4.7-14.8c-4.8-8.5-13.1-12.3-21.8-15.2
			c-2.7-0.9-5.4-2.2-8.4-1.7c-1.4-0.1-2.8-0.2-4.3-0.4c-5.5-0.9-10.4,0.6-15,3.4c-4.8,3-7.7,8-12,11.4c-0.3,0.2-0.2,0.9-0.3,1.4
			c-8.5,4-17,8-25.5,12.1c-3.7,1.8-7.2,4.3-11.1,5.5c-8.6,2.6-16.5,6.7-24.5,10.7c-1.4,0.7-2.5,2-3.5,3.2c-0.4,0.5-0.7,1.1-0.3,1.8
			c0.4,0.6,1,0.7,1.7,0.6c2.2-0.4,4.4-0.9,6.5-1.4c12.8-3.3,25.3-7.6,38.1-10.8c7.8-1.9,15.5-2.6,23.2-0.9c7,1.5,14,3.3,21.2,3.1
			c2,0,3.8,0.2,5.4,1.5c1.7,1.2,2.3,2.6,0.8,4.4c-1.8,2.1-3.2,4.4-5.2,6.3c-6.2,6-12.9,11.4-18.8,17.7c-4,4.3-7.2,9.4-8.4,14.8
			c-3.2,13.9-1.5,27.3,6.4,39.5c2.8,4.3,5.7,8.5,9.7,11.8c5,4.2,10.4,8,15.8,11.6c6.8,4.5,14.3,7.9,20.7,12.9
			c4.6,3.5,10.4,4.8,14.6,8.9c0.9,0.9,2.6,1.5,4,1.6c2.3,0.2,4.3,1.3,6.2,2.3c7.6,4,15,8.5,22.4,12.9c7.5,4.5,13.7,11.1,19,18.1
			c6.2,8.2,13,15.7,19.2,23.9c2,2.6,3.4,5.2,3.8,8.6c0.4,3.5,0.5,7,1,10.4c0.6,4.1,0.3,8.3,1.7,12.3c1.9,5,1.8,10.3,0.6,15.1
			c-2,7.9-2.8,16-4.5,23.9c-1.7,7.4-3.2,15-8.7,20.9c-1.2,1.3-1.7,3-2.4,4.7c-2.1,5.2-4.6,10.2-9,13.9c-1.2,1-2.3,2.3-3.1,3.6
			c-4.3,6.8-10.5,11.9-15.2,18.4c-3.6,5-7.9,9.6-11.8,14.4c-5.3,6.4-10.5,12.9-16.2,18.8c-2.8,2.9-5.3,6-7.6,9.2
			c-1.7,2.5-3.7,3.6-6.6,4c-21.5,3-42.9,7.1-64,12.1c-38.8,9.2-76.6,21.6-113,37.9c-0.1-1.6-0.2-3.2-0.2-4.8
			c0-145.7,0-291.5,0-437.2c0-8.9,2-17.1,7.5-24.2c7.2-9.4,16.9-13.9,28.5-14.6c1.1-0.1,2.2,0,3.4,0c235.8,0,471.6,0,707.5,0
			c6.3,0,12.4,0.8,18.2,3.6c13.4,6.6,20.2,17.6,21,32.5c0.1,1,0,1.9,0,2.9c0,96,0,192,0,288c0,1.3-0.1,2.6-0.1,3.8
			c-2.9,0.1-5.8,0.2-8.6,0.4c-16.4,1.7-32.6,4.1-48.8,7c-40.6,7.4-80.4,17.8-119.1,32.4c-39.3,14.8-76.8,33.3-111.5,57.1
			C7299.7,7095.6,7292.4,7100.5,7285.8,7106.4z"/>
		<path class="st2" d="M6958.3,6687.8c3-0.6,5.7,0.8,8.4,1.7c8.7,2.9,17,6.7,21.8,15.2c2.6,4.6,4.8,9.3,4.7,14.8
			c-0.1,2.7,0.3,5.5-0.2,8.1c-1.4,8-5.2,14.4-11.9,19.3c-5.8,4.2-12.5,7.2-17.1,13c-3.1,3.8-6.4,7.5-9,11.8c-4.2,7-1.6,14.6,4.3,19
			c7.7,5.7,16.4,6.7,25.5,5.3c3.9-0.6,7.8-1.3,11.8-1.7c4.3-0.4,8.2-2.4,12.3-3.6c6.3-1.8,12.5-3.5,19-4.1c4-0.3,7.9-1,11.8-1.6
			c3.4-0.6,6.8-0.8,10-0.2c3.5,0.7,7,0.7,10.5,0.7c7.5,0,14.9,0.8,22.4,1.8c1.3,0.2,2.6,0.1,3.8,0.2c10.4,0.4,20.6,1.4,30.6,4.4
			c5.7,1.7,11.7,3,17.5,4.2c8.9,1.8,17.4,5.1,26.2,7.7c7.7,2.3,15.1,5.3,22.3,8.6c4.3,2,8.7,4.1,12.8,6.6
			c10.6,6.3,22.5,7.6,34.3,9.7c7.7,1.4,15.4,2.8,22.2,6.9c3.7,2.2,8,3,11.6,5.5c5.1,3.5,9.2,7.7,12.7,12.7
			c4.7,6.7,8.2,14.1,11.9,21.3c3.5,6.9,6.9,13.9,7.5,22c0.2,3.1,0.8,6.4,2.2,9.3c3.3,6.9,1.9,13.7,0,20.5c-0.5,1.8-1.1,3.6-1.5,5.5
			c-0.4,2.3,0,5.2-3.1,6.5c-0.9,0.4-0.8,1.7-0.7,2.6c0.2,4.8-0.3,9.6-1,14.3c-0.2,1.5,0.3,3.4-1.8,4c-1.2,0.4-5.4-1.6-5.7-2.8
			c-1.9-8-8.1-11.9-14.6-15.6c-2.2-1.3-4.4-2.6-5.9-4.8c-0.9-1.5-2.4-2-3.6-0.8c-2.4,2.2-4.3,1.3-6-0.5c-1.6,0.4-1.7,1.6-2,2.7
			c-0.5,1.4-1.1,2.6-2.1,3.8c-2.8,3.1-3.9,2.8-5.7-0.7c-1.7-3.3-2.8-7.1-6.4-9.3c-0.9-0.6-1.2-2.2-1.9-3.2c-1.1-1.6-2.5-1.9-4-0.5
			c-1.1,1.1-2.4,2.1-3,3.7c-1.2,3.2-3.9,5-6.1,7.3c-1.5,1.5-3.4,1.8-5.3,1.1c-1.8-0.7-1.8-2.4-1.8-4.1c-0.2-4.1-2.7-7.4-3.7-11.2
			c-0.5-1.8-2.6-2.2-4.5-2.1c-3.7,0.1-6.9-1.2-10.3-2.7c-5.5-2.4-11.8-4.3-18-1.4c-1.7,0.8-3.4,0.8-5.1,0.8c-4.2,0-8.3,0-12.5,0
			c-1.7,0-2.8,0.5-2.7,2.4c0.1,2.4-1.3,3-3.4,2.9c-2.2-0.1-4.4,0.1-6.7-0.4c-5.1-1-8.1,1.4-8,6.5c0.1,10.6,1.7,21,6.5,30.6
			c3.7,7.3,6,15.1,9.9,22.3c2,3.7,3.5,7.6,6.2,10.8c1.5,1.8,1.4,3.8,1.4,5.9c0,9.9-0.4,19.8,0.1,29.7c0.5,11.9,0.7,23.8,2.6,35.7
			c0.7,4.7,1,9.5,1.3,14.3c0,0.8,0,1.6,0,2.4c0.4,6,0.6,6.4,6.4,7.1c14,1.5,27.9,3.2,41.8,5.3c19.4,3,38.7,6.7,57.8,11.4
			c0.9,0.2,1.9,0.4,2.6,1.1c-7.2,1.3-14.4,2.5-21.7,3.8c-46.8,8.6-92.2,21.3-134.7,43.1c-21.9,11.2-42.1,24.9-59.3,42.7
			c-18.6,19.3-30.5,42-35.3,68.4c-2.9,15.8-4.6,31.6-4,47.7c1.2,35.4,11.4,67.9,30.2,97.8c6.6,10.6,14.2,20.5,22.7,29.7
			c0.7,0.8,1.7,1.5,2,2.7c-0.7,1.3-2,0.7-3,0.7c-76,0-152,0.1-228,0c-21.5,0-37.5-15.9-37.5-37.2c-0.1-86.6,0-173.1,0-259.7
			c0-1.1,0.1-2.2,0.2-3.3c36.4-16.3,74.2-28.7,113-37.9c21.2-5,42.5-9.1,64-12.1c2.9-0.4,4.9-1.5,6.6-4c2.2-3.3,4.8-6.4,7.6-9.2
			c5.8-6,11-12.4,16.2-18.8c3.9-4.8,8.2-9.4,11.8-14.4c4.6-6.5,10.9-11.7,15.2-18.4c0.8-1.3,1.9-2.6,3.1-3.6c4.4-3.8,6.8-8.8,9-13.9
			c0.7-1.6,1.2-3.4,2.4-4.7c5.5-5.9,7-13.5,8.7-20.9c1.8-7.9,2.6-16,4.5-23.9c1.2-4.9,1.3-10.1-0.6-15.1c-1.5-4-1.1-8.2-1.7-12.3
			c-0.5-3.4-0.6-6.9-1-10.4c-0.4-3.4-1.8-6-3.8-8.6c-6.2-8.1-13-15.7-19.2-23.9c-5.3-7-11.5-13.6-19-18.1c-7.4-4.4-14.7-9-22.4-12.9
			c-2-1-3.9-2.1-6.2-2.3c-1.4-0.1-3-0.6-4-1.6c-4.2-4.1-10-5.4-14.6-8.9c-6.5-4.9-13.9-8.4-20.7-12.9c-5.5-3.6-10.8-7.4-15.8-11.6
			c-4-3.3-6.9-7.5-9.7-11.8c-7.9-12.2-9.7-25.6-6.4-39.5c1.3-5.5,4.4-10.5,8.4-14.8c5.9-6.3,12.6-11.8,18.8-17.7
			c2-1.9,3.4-4.2,5.2-6.3c1.5-1.8,0.9-3.2-0.8-4.4c-1.6-1.2-3.5-1.5-5.4-1.5c-7.3,0.2-14.2-1.7-21.2-3.1c-7.7-1.6-15.4-1-23.2,0.9
			c-12.8,3.2-25.4,7.5-38.1,10.8c-2.2,0.6-4.4,1-6.5,1.4c-0.6,0.1-1.3,0-1.7-0.6c-0.4-0.7-0.1-1.3,0.3-1.8c1-1.2,2.1-2.5,3.5-3.2
			c7.9-4,15.9-8.1,24.5-10.7c3.9-1.2,7.4-3.7,11.1-5.5c8.5-4.1,17-8.1,25.5-12.1c0.1,1.5,0.2,3,0.3,4.4c-0.1,0-0.3,0-0.4,0.1
			c-0.1,0-0.1,0.3-0.1,0.3c0.3,0.1,0.4,0,0.5-0.4c1.3-0.9,2.4-1.2,3.6,0.3c0.8,0.9,1.8,2.3,3.1,1.8c3.9-1.7,8.3-2.7,11-6.4
			c0.7-0.7,3.1-0.1,2-2.4c2.8-2.8,6.6-3.4,10.2-4.7c2.1-0.7,4.9-0.9,5.3-3.9C6962.7,6689.6,6960,6689.1,6958.3,6687.8z
			 M7003.2,7091.2c2.8-0.2,5.2-0.3,7.6-0.6c23-2.7,46.1-4.4,69.3-4.6c20.3-0.1,40.6-0.5,60.9,0.8c5.7,0.4,11.5,0.8,17.2,1
			c4.5,0.2,4.8-0.1,3.8-4.5c-1-4.5-1.2-9.1-1.8-13.7c-1-7.4-1.9-14.8-2.6-22.3c-0.6-6.2-2-12.3-2.5-18.5c-0.7-7.6-2-15.2-5.9-22
			c-0.9-1.5-0.9-2.8-0.6-4.5c0.8-5.9,0.9-11.7-1.3-17.5c-3.8-9.7-7.2-19.4-10.9-29.2c-1.2-3.2-3-5.9-5.5-8.3
			c-3.3-3.2-6.8-6.3-9.4-10.2c-0.4-0.6-1.1-1.4-1.8-1.5c-4.5-0.5-7.2-3.8-10.2-6.7c-1.7-1.6-9-2.6-10.3-1c-2.1,2.6-5.2,4.4-6.7,7.2
			c-3.9,7.1-7.2,14.6-10.7,21.9c-0.5,1-0.5,2.1-0.7,3.2c-0.5,3.2-0.7,6.3-1.3,9.5c-2.5,11.9-4.1,23.9-3.6,36c0.1,3.3-1,5.8-3.3,8.1
			c-4.9,4.8-10,9.4-15,14.1c-8.7,8.3-16.7,17.1-24.6,26.1c-9.1,10.4-18.4,20.7-26.5,31.9C7005.6,7087.7,7003.9,7088.6,7003.2,7091.2
			z"/>
		<path class="st3" d="M7285.8,7106.4c6.5-5.9,13.8-10.8,21.1-15.8c34.7-23.8,72.2-42.3,111.5-57.1c38.7-14.6,78.5-25,119.1-32.4
			c16.2-2.9,32.4-5.3,48.8-7c2.9-0.3,5.7-0.3,8.6-0.4c0,1.6,0.1,3.2,0.1,4.8c0,135.3,0,270.7,0,406c0,4.8-0.3,9.6-1.8,14.2
			c-3.9,11.5-11.7,19.2-23,23.4c-3.1,1.1-6.2,1.3-9.4,0.6c-18.4-3.5-36.4-8.5-54.3-13.8c-52.9-15.8-104.6-35-154.1-59.5
			c-27.9-13.8-54.7-29.2-79.2-48.5c-12.5-9.8-24.1-20.6-33.7-33.3c-15.8-20.7-23.7-44.1-23.4-70.1c0.2-18.8,5.8-36.2,15.1-52.4
			c12.8-22.3,30.5-40.2,51.2-55.1C7283.6,7108.9,7285.5,7108.5,7285.8,7106.4z"/>
		<path class="st4" d="M6944.8,6703.5c-2.8,3.7-7.1,4.7-11,6.4c-1.3,0.6-2.3-0.8-3.1-1.8c-1.2-1.5-2.4-1.2-3.6-0.3l0.1,0.1
			c-0.1-1.5-0.2-2.9-0.3-4.4c0.1-0.5,0.1-1.1,0.3-1.4c4.3-3.4,7.2-8.4,12-11.4c4.6-2.8,9.5-4.3,15-3.4c1.4,0.2,2.8,0.3,4.3,0.4
			c1.6,1.3,4.3,1.8,3.9,4.7c-0.4,3-3.2,3.2-5.3,3.9c-3.5,1.2-7.3,1.9-10.2,4.7c-0.7-0.8-1.4-1.8-2.2-2.5c-1.1-1.1-2.3-1-3.4,0.1
			c-0.9,0.9-1.8,2-0.9,3.3C6941.4,6703.7,6942.8,6704.5,6944.8,6703.5z"/>
		<path class="st5" d="M7003.2,7091.2c0.6-2.7,2.4-3.5,3.4-4.9c8.1-11.2,17.4-21.5,26.5-31.9c7.9-9.1,16-17.9,24.6-26.1
			c5-4.7,10.1-9.3,15-14.1c2.3-2.3,3.5-4.8,3.3-8.1c-0.6-12.2,1.1-24.2,3.6-36c0.7-3.1,0.9-6.3,1.3-9.5c0.2-1.1,0.2-2.3,0.7-3.2
			c3.5-7.4,6.8-14.8,10.7-21.9c1.5-2.8,4.7-4.6,6.7-7.2c1.3-1.6,8.6-0.7,10.3,1c3,2.9,5.6,6.1,10.2,6.7c0.7,0.1,1.4,0.9,1.8,1.5
			c2.6,3.9,6.1,7,9.4,10.2c2.5,2.4,4.3,5.2,5.5,8.3c3.7,9.7,7.1,19.5,10.9,29.2c2.2,5.7,2.1,11.6,1.3,17.5c-0.2,1.7-0.2,3.1,0.6,4.5
			c3.9,6.8,5.3,14.4,5.9,22c0.6,6.2,1.9,12.3,2.5,18.5c0.7,7.4,1.6,14.9,2.6,22.3c0.6,4.6,0.8,9.2,1.8,13.7c0.9,4.4,0.6,4.7-3.8,4.5
			c-5.7-0.3-11.5-0.7-17.2-1c-20.3-1.4-40.6-1-60.9-0.8c-23.2,0.2-46.3,1.9-69.3,4.6C7008.4,7090.9,7006,7091,7003.2,7091.2z"/>
		<path class="st5" d="M6944.8,6703.5c-2,1.1-3.4,0.2-4.4-1.5c-0.9-1.4,0-2.4,0.9-3.3c1.1-1.1,2.3-1.2,3.4-0.1
			c0.8,0.8,1.5,1.7,2.2,2.5C6947.9,6703.3,6945.5,6702.7,6944.8,6703.5z M6942.5,6702.4c0.7,0,1.3-0.3,1.4-0.9
			c0.2-1-0.5-1.4-1.3-1.4c-0.6,0-1.2,0.3-1.2,1.1C6941.5,6702,6942,6702.2,6942.5,6702.4z"/>
		<path class="st4" d="M6927,6707.8c-0.1,0.4-0.2,0.6-0.5,0.4c0,0,0-0.3,0.1-0.3C6926.8,6707.9,6926.9,6707.9,6927,6707.8
			C6927.1,6707.9,6927,6707.8,6927,6707.8z"/>
		<path class="st3" d="M6942.5,6702.4c-0.6-0.2-1.1-0.4-1.1-1.2c0-0.8,0.6-1.1,1.2-1.1c0.8,0,1.5,0.4,1.3,1.4
			C6943.9,6702.1,6943.2,6702.4,6942.5,6702.4z"/>
	</g>
</g>
<text transform="matrix(1 0 0 1.0151 6801.3965 7594.395)"><tspan x="0" y="0" class="st6 st7 st8 st9">Wild Paths</tspan><tspan x="0" y="133.3" class="st6 st7 st8">Wisconsin</tspan></text>
</svg>
