<?xml version="1.0" encoding="utf-8"?>
<!-- Generator: Adobe Illustrator 16.0.0, SVG Export Plug-In . SVG Version: 6.00 Build 0)  -->
<!DOCTYPE svg PUBLIC "-//W3C//DTD SVG 1.1//EN" "http://www.w3.org/Graphics/SVG/1.1/DTD/svg11.dtd">
<svg version="1.1" id="Layer_1" xmlns="http://www.w3.org/2000/svg" xmlns:xlink="http://www.w3.org/1999/xlink" x="0px" y="0px"
	 width="249.334px" height="329.333px" viewBox="-6.167 -9.583 249.334 329.333"
	 enable-background="new -6.167 -9.583 249.334 329.333" xml:space="preserve">
<g>
	<g>
		<path fill="#FFFFFF" d="M224.401,226.35c-69.286,0-138.605,0-207.896,0c0-71.324,0-142.65,0-213.973c69.291,0,138.61,0,207.896,0
			C224.401,83.7,224.401,155.026,224.401,226.35z M230.625,99.841c0-0.368,0.022-0.733,0.022-1.074c0-27.138,0-54.28,0-81.418
			c0-0.283,0-0.536,0-0.821c-0.253-4.184-2.146-7.291-5.933-9.186c-1.606-0.792-3.336-1.017-5.145-1.017
			c-66.67,0-133.326,0-200.018,0c-0.311,0-0.619,0-0.958,0c-3.281,0.197-6.022,1.467-8.058,4.126
			c-1.559,2.035-2.121,4.327-2.121,6.843c0,41.187,0,82.403,0,123.596c0,0.453,0.027,0.906,0.055,1.356
			c-0.027,0.311-0.055,0.623-0.055,0.933c0,24.478,0,48.938,0,73.415c0,6.057,4.522,10.521,10.601,10.521
			c21.488,0.029,42.97,0,64.457,0c0.284,0,0.651,0.174,0.847-0.207c-0.082-0.33-0.336-0.533-0.562-0.758
			c-2.403-2.604-4.524-5.396-6.418-8.395c-5.289-8.453-8.198-17.668-8.538-27.654c-0.143-4.543,0.34-9.016,1.132-13.479
			c1.356-7.472,4.72-13.885,9.979-19.336c4.863-5.059,10.574-8.905,16.765-12.072c12.013-6.165,24.847-9.752,38.081-12.188
			c2.035-0.365,4.068-0.705,6.132-1.071c0.769,0.112,1.498-0.171,2.263-0.253c-0.084,0.592-0.646,0.734-1.017,0.986
			c-5.854,4.242-10.862,9.275-14.478,15.578c-2.635,4.578-4.211,9.497-4.273,14.813c-0.078,7.349,2.18,13.961,6.627,19.812
			c2.736,3.601,6.012,6.621,9.521,9.418c6.926,5.459,14.534,9.815,22.396,13.711c14.021,6.926,28.603,12.354,43.556,16.815
			c5.062,1.498,10.186,2.92,15.354,3.904c0.938,0.166,1.781,0.145,2.664-0.166c3.219-1.189,5.426-3.365,6.502-6.617
			c0.424-1.301,0.502-2.656,0.502-4.015c0-38.25,0-76.529,0-114.777C230.648,100.749,230.625,100.295,230.625,99.841z"/>
		<path fill="#F7B74D" d="M143.21,131.733c-0.767,0.082-1.496,0.365-2.267,0.252c-0.22-0.197-0.473-0.225-0.729-0.312
			c-5.403-1.325-10.854-2.374-16.338-3.222c-3.933-0.619-7.892-1.074-11.817-1.5c-1.643-0.17-1.695-0.312-1.811-2.008
			c-0.028-0.225,0-0.449,0-0.678c-0.057-1.357-0.17-2.713-0.367-4.042c-0.51-3.364-0.564-6.729-0.733-10.093
			c-0.114-2.796-0.028-5.596-0.028-8.393c0-0.596,0-1.191-0.398-1.668c-0.762-0.906-1.188-2.008-1.75-3.058
			c-1.104-2.034-1.755-4.267-2.801-6.302c-1.385-2.713-1.811-5.625-1.838-8.648c-0.027-1.443,0.82-2.123,2.264-1.839
			c0.62,0.11,1.271,0.083,1.895,0.11c0.563,0.029,0.988-0.11,0.961-0.817c-0.033-0.54,0.28-0.681,0.762-0.681
			c1.186,0,2.347,0,3.533,0c0.509,0,0.99,0,1.443-0.225c1.751-0.821,3.508-0.312,5.088,0.396c0.99,0.425,1.867,0.819,2.913,0.765
			c0.534-0.029,1.13,0.088,1.271,0.596c0.285,1.074,1.022,2.035,1.047,3.164c0.023,0.453,0,0.961,0.513,1.16
			c0.538,0.201,1.076,0.142,1.5-0.312c0.616-0.647,1.379-1.161,1.722-2.063c0.172-0.455,0.536-0.734,0.852-1.045
			c0.428-0.426,0.82-0.312,1.13,0.143c0.198,0.283,0.282,0.761,0.534,0.902c1.021,0.597,1.334,1.668,1.809,2.631
			c0.536,1.018,0.852,1.072,1.617,0.197c0.273-0.312,0.447-0.68,0.59-1.072c0.109-0.285,0.109-0.623,0.568-0.767
			c0.474,0.509,1.01,0.767,1.697,0.144c0.367-0.34,0.764-0.197,1.017,0.225c0.396,0.65,1.041,1.018,1.666,1.355
			c1.835,1.045,3.562,2.148,4.124,4.414c0.087,0.338,1.277,0.903,1.613,0.789c0.596-0.17,0.42-0.707,0.518-1.133
			c0.188-1.328,0.331-2.685,0.273-4.042c0-0.28-0.057-0.647,0.197-0.733c0.885-0.368,0.766-1.16,0.885-1.84
			c0.078-0.535,0.25-1.043,0.416-1.554c0.566-1.923,0.938-3.873,0-5.798c-0.396-0.816-0.562-1.75-0.623-2.626
			c-0.145-2.265-1.127-4.267-2.11-6.219c-1.052-2.036-2.038-4.13-3.371-6.023c-0.983-1.412-2.151-2.598-3.588-3.589
			c-1.017-0.707-2.24-0.934-3.282-1.554c-1.923-1.191-4.104-1.585-6.275-1.952c-3.33-0.595-6.696-0.962-9.693-2.741
			c-1.16-0.678-2.374-1.302-3.617-1.865c-2.065-0.934-4.13-1.782-6.306-2.433c-2.459-0.734-4.864-1.669-7.407-2.177
			c-1.669-0.34-3.336-0.706-4.945-1.188c-2.829-0.848-5.739-1.101-8.653-1.243c-0.367-0.031-0.733,0-1.074-0.059
			c-2.09-0.312-4.184-0.537-6.334-0.51c-0.988,0-1.975,0-2.965-0.195c-0.907-0.17-1.865-0.111-2.828,0.055
			c-1.104,0.173-2.204,0.37-3.336,0.453c-1.838,0.17-3.59,0.623-5.371,1.159c-1.161,0.34-2.288,0.903-3.475,1.018
			c-1.133,0.113-2.236,0.338-3.337,0.481c-2.575,0.366-5.032,0.114-7.21-1.499c-1.667-1.242-2.4-3.392-1.214-5.372
			c0.733-1.214,1.667-2.232,2.543-3.337c1.302-1.637,3.195-2.456,4.835-3.671c1.893-1.39,2.967-3.194,3.364-5.459
			c0.139-0.733,0.028-1.525,0.056-2.287c0.027-1.558-0.595-2.886-1.33-4.184c-1.355-2.405-3.701-3.479-6.164-4.299
			c-0.762-0.253-1.525-0.624-2.375-0.481c-0.395-0.027-0.787-0.055-1.215-0.11c-1.553-0.257-2.938,0.169-4.238,0.958
			c-1.356,0.847-2.178,2.263-3.393,3.222c-0.086,0.06-0.061,0.257-0.086,0.398c-2.402,1.129-4.805,2.26-7.21,3.419
			c-1.045,0.51-2.035,1.216-3.136,1.554c-2.432,0.738-4.666,1.897-6.924,3.026c-0.398,0.196-0.711,0.567-0.989,0.906
			c-0.115,0.143-0.202,0.312-0.087,0.508c0.113,0.17,0.283,0.198,0.48,0.17c0.623-0.114,1.241-0.256,1.838-0.398
			c3.616-0.931,7.15-2.145,10.771-3.053c2.204-0.536,4.382-0.733,6.559-0.251c1.979,0.421,3.956,0.929,5.995,0.875
			c0.564,0,1.072,0.055,1.527,0.422c0.479,0.339,0.646,0.738,0.224,1.246c-0.508,0.592-0.901,1.242-1.47,1.783
			c-1.751,1.696-3.645,3.221-5.312,5.001c-1.133,1.214-2.035,2.657-2.375,4.184c-0.908,3.928-0.425,7.719,1.807,11.164
			c0.793,1.221,1.613,2.407,2.744,3.338c1.412,1.187,2.938,2.263,4.465,3.281c1.925,1.27,4.043,2.231,5.853,3.645
			c1.302,0.989,2.938,1.357,4.126,2.516c0.258,0.255,0.738,0.425,1.131,0.453c0.65,0.055,1.215,0.366,1.756,0.65
			c2.146,1.131,4.24,2.402,6.33,3.648c2.121,1.27,3.873,3.135,5.373,5.115c1.754,2.319,3.676,4.438,5.426,6.756
			c0.568,0.738,0.963,1.472,1.078,2.435c0.11,0.983,0.142,1.976,0.279,2.937c0.174,1.162,0.088,2.349,0.48,3.479
			c0.541,1.41,0.509,2.91,0.171,4.268c-0.563,2.232-0.789,4.523-1.271,6.755c-0.482,2.095-0.906,4.24-2.462,5.908
			c-0.339,0.372-0.481,0.848-0.678,1.328c-0.591,1.472-1.302,2.883-2.543,3.934c-0.341,0.278-0.651,0.646-0.877,1.017
			c-1.214,1.92-2.968,3.363-4.298,5.197c-1.018,1.416-2.232,2.717-3.336,4.074c-1.496,1.807-2.967,3.645-4.58,5.312
			c-0.788,0.822-1.499,1.695-2.149,2.604c-0.476,0.706-1.044,1.017-1.864,1.127c-6.078,0.853-12.129,2.007-18.091,3.423
			c-10.969,2.602-21.657,6.106-31.946,10.713c-0.026-0.451-0.055-0.903-0.055-1.356c0-41.187,0-82.406,0-123.595
			c0-2.516,0.562-4.836,2.118-6.844c2.035-2.658,4.778-3.928,8.058-4.125c0.312-0.028,0.623,0,0.961,0c66.66,0,133.321,0,200.004,0
			c1.781,0,3.513,0.225,5.148,1.018c3.788,1.866,5.713,4.973,5.941,9.185c0.021,0.285,0,0.536,0,0.82c0,27.143,0,54.28,0,81.418
			c0,0.368-0.031,0.733-0.031,1.073c-0.818,0.033-1.643,0.06-2.43,0.115c-4.641,0.479-9.213,1.158-13.797,1.979
			c-11.479,2.091-22.727,5.031-33.674,9.156c-11.104,4.187-21.707,9.416-31.521,16.145
			C147.142,128.679,145.08,130.063,143.21,131.733z"/>
		<path fill="#336732" d="M50.628,13.395c0.847-0.174,1.61,0.225,2.372,0.477c2.463,0.821,4.81,1.896,6.166,4.3
			c0.734,1.302,1.356,2.63,1.33,4.184c-0.032,0.763,0.082,1.554-0.061,2.288c-0.395,2.264-1.47,4.073-3.363,5.458
			c-1.637,1.188-3.533,2.035-4.832,3.676c-0.879,1.072-1.811,2.118-2.547,3.332c-1.188,1.98-0.449,4.129,1.219,5.372
			c2.177,1.615,4.635,1.897,7.207,1.499c1.104-0.169,2.207-0.367,3.336-0.48c1.213-0.111,2.318-0.679,3.479-1.019
			c1.778-0.508,3.534-0.989,5.372-1.159c1.132-0.083,2.231-0.28,3.337-0.449c0.958-0.169,1.919-0.229,2.823-0.059
			c0.989,0.2,1.979,0.2,2.969,0.2c2.123,0,4.212,0.225,6.335,0.509c0.368,0.055,0.733,0.027,1.074,0.055
			c2.938,0.115,5.824,0.396,8.648,1.243c1.613,0.479,3.309,0.849,4.949,1.188c2.516,0.508,4.918,1.444,7.407,2.177
			c2.177,0.65,4.269,1.499,6.304,2.433c1.217,0.563,2.459,1.158,3.618,1.865c2.997,1.782,6.36,2.15,9.688,2.741
			c2.18,0.399,4.354,0.792,6.277,1.952c1.053,0.624,2.268,0.849,3.282,1.554c1.442,0.991,2.604,2.177,3.601,3.59
			c1.32,1.896,2.311,3.987,3.357,6.021c0.982,1.952,1.945,3.933,2.111,6.22c0.062,0.877,0.229,1.811,0.634,2.631
			c0.929,1.947,0.532,3.873,0,5.793c-0.146,0.51-0.313,1.018-0.431,1.554c-0.107,0.651,0,1.472-0.883,1.839
			c-0.252,0.113-0.221,0.48-0.188,0.736c0.047,1.355-0.096,2.713-0.285,4.041c-0.062,0.424,0.079,0.959-0.51,1.129
			c-0.34,0.115-1.521-0.448-1.608-0.788c-0.539-2.265-2.296-3.365-4.127-4.411c-0.633-0.37-1.246-0.736-1.673-1.355
			c-0.253-0.426-0.68-0.567-1.02-0.229c-0.681,0.624-1.213,0.367-1.693-0.143c-0.46,0.115-0.48,0.453-0.569,0.767
			c-0.14,0.394-0.306,0.733-0.591,1.071c-0.79,0.875-1.098,0.793-1.607-0.195c-0.481-0.932-0.797-2.008-1.809-2.63
			c-0.259-0.169-0.348-0.62-0.534-0.904c-0.315-0.453-0.713-0.537-1.136-0.142c-0.316,0.312-0.682,0.595-0.854,1.046
			c-0.332,0.905-1.104,1.415-1.724,2.065c-0.423,0.422-0.96,0.51-1.497,0.312c-0.504-0.202-0.504-0.68-0.504-1.16
			c-0.062-1.16-0.771-2.094-1.049-3.168c-0.145-0.508-0.735-0.623-1.273-0.596c-1.043,0.027-1.951-0.34-2.91-0.762
			c-1.56-0.678-3.336-1.219-5.093-0.397c-0.477,0.229-0.957,0.229-1.438,0.229c-1.187,0-2.349,0-3.534,0
			c-0.48,0-0.792,0.142-0.766,0.676c0.027,0.681-0.366,0.849-0.957,0.822c-0.624-0.031-1.247,0.026-1.897-0.115
			c-1.438-0.283-2.288,0.396-2.26,1.838c0.026,2.998,0.481,5.936,1.837,8.648c1.046,2.068,1.696,4.272,2.796,6.307
			c0.567,1.045,0.99,2.15,1.755,3.053c0.422,0.51,0.396,1.074,0.396,1.669c0,2.796-0.111,5.597,0.028,8.396
			c0.143,3.366,0.199,6.729,0.737,10.094c0.195,1.33,0.28,2.686,0.366,4.043c0,0.224,0,0.449,0,0.678
			c0.113,1.695,0.17,1.807,1.812,2.008c3.955,0.421,7.888,0.903,11.815,1.499c5.48,0.845,10.939,1.895,16.341,3.222
			c0.253,0.056,0.538,0.11,0.728,0.312c-2.031,0.368-4.068,0.706-6.127,1.073c-13.231,2.43-26.065,6.022-38.081,12.183
			c-6.191,3.168-11.9,7.041-16.764,12.072c-5.259,5.458-8.623,11.878-9.979,19.341c-0.82,4.468-1.302,8.929-1.132,13.479
			c0.34,10.011,3.222,19.188,8.537,27.646c1.867,2.998,4.016,5.799,6.418,8.395c0.197,0.236,0.48,0.426,0.563,0.771
			c-0.196,0.363-0.563,0.188-0.847,0.188c-21.483,0-42.971,0.033-64.458,0c-6.077,0-10.601-4.495-10.601-10.514
			c-0.027-24.479,0-48.931,0-73.417c0-0.312,0.027-0.618,0.055-0.931c10.293-4.61,20.979-8.116,31.947-10.715
			c5.993-1.413,12.017-2.571,18.094-3.42c0.82-0.113,1.385-0.424,1.865-1.131c0.623-0.935,1.355-1.812,2.149-2.604
			c1.637-1.695,3.108-3.501,4.58-5.312c1.101-1.357,2.317-2.66,3.337-4.071c1.297-1.837,3.079-3.31,4.293-5.201
			c0.229-0.367,0.538-0.738,0.88-1.017c1.242-1.078,1.921-2.49,2.544-3.934c0.197-0.449,0.34-0.958,0.68-1.328
			c1.554-1.664,1.976-3.814,2.457-5.91c0.508-2.231,0.737-4.521,1.273-6.754c0.339-1.386,0.366-2.855-0.17-4.269
			c-0.425-1.132-0.311-2.318-0.48-3.478c-0.142-0.959-0.17-1.949-0.285-2.938c-0.11-0.963-0.508-1.696-1.071-2.435
			c-1.757-2.287-3.677-4.438-5.429-6.756c-1.498-1.979-3.252-3.846-5.371-5.115c-2.096-1.247-4.156-2.545-6.334-3.649
			c-0.563-0.285-1.103-0.591-1.752-0.65c-0.398-0.028-0.848-0.17-1.131-0.45c-1.188-1.159-2.828-1.525-4.129-2.516
			c-1.834-1.388-3.929-2.377-5.849-3.646c-1.56-1.019-3.053-2.091-4.469-3.282c-1.132-0.932-1.948-2.118-2.741-3.334
			c-2.23-3.449-2.744-7.236-1.811-11.168c0.367-1.554,1.242-2.965,2.375-4.185c1.668-1.779,3.561-3.332,5.316-5.001
			c0.562-0.536,0.957-1.186,1.469-1.782c0.424-0.509,0.254-0.903-0.228-1.242c-0.453-0.339-0.99-0.427-1.526-0.427
			c-2.062,0.06-4.015-0.481-5.994-0.875c-2.172-0.454-4.351-0.285-6.559,0.256c-3.617,0.903-7.178,2.118-10.77,3.053
			c-0.621,0.168-1.244,0.279-1.836,0.394c-0.17,0.028-0.371,0-0.48-0.169c-0.115-0.196-0.032-0.367,0.083-0.509
			c0.284-0.337,0.596-0.705,0.989-0.903c2.232-1.131,4.496-2.29,6.926-3.024c1.104-0.34,2.095-1.049,3.139-1.559
			c2.402-1.16,4.805-2.287,7.211-3.419c0.027,0.425,0.055,0.848,0.082,1.242c-0.027,0-0.082,0-0.109,0.032
			c-0.032,0-0.032,0.083-0.032,0.083c0.087,0.027,0.114,0,0.142-0.115c0.366-0.251,0.68-0.339,1.018,0.087
			c0.229,0.253,0.51,0.65,0.875,0.508c1.104-0.48,2.348-0.764,3.111-1.81c0.197-0.197,0.875-0.027,0.565-0.678
			c0.792-0.792,1.864-0.961,2.881-1.329c0.597-0.198,1.39-0.253,1.499-1.1C51.869,13.898,51.107,13.76,50.628,13.395z
			 M63.318,127.432c0.793-0.055,1.471-0.083,2.149-0.168c6.503-0.762,13.035-1.242,19.593-1.302
			c5.739-0.026,11.477-0.138,17.217,0.229c1.608,0.108,3.248,0.225,4.862,0.284c1.271,0.056,1.356-0.032,1.072-1.276
			c-0.284-1.272-0.339-2.57-0.509-3.873c-0.285-2.094-0.537-4.185-0.733-6.305c-0.17-1.752-0.567-3.476-0.707-5.23
			c-0.202-2.146-0.567-4.293-1.668-6.219c-0.256-0.422-0.256-0.789-0.168-1.271c0.224-1.667,0.251-3.309-0.373-4.947
			c-1.071-2.742-2.035-5.483-3.08-8.256c-0.34-0.902-0.849-1.669-1.554-2.347c-0.934-0.904-1.92-1.777-2.658-2.884
			c-0.115-0.168-0.311-0.394-0.508-0.42c-1.271-0.144-2.035-1.077-2.883-1.894c-0.48-0.455-2.543-0.737-2.911-0.284
			c-0.597,0.732-1.472,1.241-1.897,2.034c-1.1,2.007-2.035,4.125-3.023,6.192c-0.139,0.279-0.139,0.591-0.197,0.902
			c-0.143,0.904-0.198,1.782-0.368,2.687c-0.706,3.364-1.159,6.756-1.017,10.18c0.027,0.931-0.285,1.638-0.932,2.288
			c-1.389,1.355-2.828,2.658-4.244,3.985c-2.457,2.348-4.722,4.836-6.953,7.381c-2.572,2.938-5.203,5.848-7.494,9.017
			C63.996,126.444,63.521,126.7,63.318,127.432z"/>
		<path fill="#326632" d="M143.21,131.733c1.84-1.67,3.904-3.054,5.973-4.469c9.807-6.729,20.404-11.958,31.521-16.145
			c10.93-4.125,22.188-7.065,33.662-9.156c4.574-0.821,9.155-1.499,13.797-1.979c0.817-0.084,1.615-0.084,2.43-0.115
			c0,0.453,0.031,0.906,0.031,1.356c0,38.253,0,76.527,0,114.786c0,1.354-0.088,2.713-0.515,4.006
			c-1.104,3.25-3.305,5.428-6.5,6.619c-0.875,0.307-1.749,0.37-2.657,0.163c-5.197-0.985-10.293-2.396-15.35-3.896
			c-14.955-4.465-29.574-9.891-43.564-16.814c-7.892-3.912-15.461-8.258-22.386-13.717c-3.534-2.771-6.815-5.818-9.528-9.408
			c-4.465-5.854-6.703-12.473-6.617-19.824c0.056-5.311,1.642-10.229,4.271-14.812c3.618-6.303,8.627-11.363,14.474-15.576
			C142.587,132.438,143.125,132.323,143.21,131.733z"/>
		<path fill="#BA150F" d="M46.809,17.831c-0.789,1.046-2.008,1.329-3.107,1.81c-0.367,0.17-0.65-0.228-0.875-0.508
			c-0.34-0.426-0.679-0.338-1.021-0.087l0.031,0.029c-0.031-0.422-0.061-0.821-0.088-1.243c0.029-0.142,0.029-0.311,0.088-0.394
			c1.214-0.963,2.035-2.378,3.392-3.226c1.302-0.789,2.687-1.216,4.239-0.959c0.396,0.056,0.793,0.083,1.216,0.11
			c0.453,0.371,1.214,0.508,1.104,1.329c-0.114,0.849-0.906,0.908-1.5,1.104c-0.988,0.339-2.062,0.536-2.881,1.329
			c-0.197-0.228-0.398-0.508-0.625-0.706c-0.311-0.311-0.649-0.283-0.961,0.028c-0.252,0.253-0.509,0.562-0.252,0.931
			C45.852,17.885,46.244,18.115,46.809,17.831z"/>
		<path fill="#F5B64D" d="M63.318,127.432c0.17-0.761,0.678-0.988,0.963-1.384c2.291-3.167,4.918-6.078,7.494-9.019
			c2.23-2.573,4.522-5.062,6.952-7.377c1.412-1.33,2.854-2.629,4.239-3.986c0.65-0.651,0.99-1.356,0.936-2.291
			c-0.17-3.447,0.312-6.84,1.017-10.176c0.198-0.875,0.253-1.783,0.368-2.687c0.056-0.312,0.056-0.651,0.197-0.907
			c0.989-2.09,1.92-4.18,3.024-6.188c0.425-0.792,1.329-1.301,1.894-2.039c0.37-0.45,2.434-0.198,2.914,0.285
			c0.85,0.818,1.582,1.727,2.885,1.893c0.194,0.032,0.394,0.256,0.508,0.426c0.732,1.104,1.725,1.979,2.658,2.883
			c0.705,0.679,1.215,1.472,1.555,2.347c1.045,2.742,2.007,5.514,3.08,8.254c0.623,1.614,0.595,3.282,0.367,4.951
			c-0.056,0.476-0.056,0.875,0.17,1.269c1.104,1.924,1.498,4.07,1.666,6.219c0.17,1.756,0.537,3.479,0.707,5.229
			c0.203,2.095,0.453,4.212,0.738,6.308c0.17,1.297,0.225,2.599,0.508,3.873c0.254,1.242,0.17,1.325-1.076,1.271
			c-1.608-0.084-3.25-0.197-4.858-0.285c-5.741-0.394-11.481-0.28-17.22-0.226c-6.559,0.061-13.088,0.539-19.59,1.303
			C64.789,127.349,64.111,127.377,63.318,127.432z"/>
		<path fill="#F5B64D" d="M46.809,17.831c-0.564,0.312-0.958,0.055-1.242-0.426c-0.256-0.396,0-0.679,0.254-0.931
			c0.311-0.311,0.649-0.339,0.961-0.028c0.225,0.225,0.426,0.481,0.623,0.706C47.685,17.772,47.007,17.606,46.809,17.831z
			 M46.158,17.521c0.201,0,0.371-0.087,0.399-0.253c0.056-0.285-0.144-0.398-0.368-0.398c-0.17,0-0.339,0.087-0.339,0.311
			C45.88,17.404,46.02,17.464,46.158,17.521z"/>
		<path fill="#BA150F" d="M41.777,19.045c-0.029,0.115-0.056,0.17-0.139,0.115c0,0,0-0.086,0.027-0.086
			C41.722,19.073,41.748,19.073,41.777,19.045C41.809,19.073,41.777,19.045,41.777,19.045z"/>
		<path fill="#326632" d="M46.158,17.521c-0.168-0.056-0.307-0.115-0.307-0.341c0-0.223,0.168-0.311,0.34-0.311
			c0.225,0,0.422,0.113,0.367,0.398C46.558,17.432,46.359,17.521,46.158,17.521z"/>
	</g>
</g>
<text transform="matrix(0.9851 0 0 1 6.2744 269.688)" fill="#306632" font-family="'MyriadPro-Bold'" font-size="50.9098">Wild</text>
<text transform="matrix(0.9851 0 0 1 105.6216 269.688)" fill="#306632" font-family="'MyriadPro-Bold'" font-size="50.9098" letter-spacing="-1.015"> </text>
<text transform="matrix(0.9851 0 0 1 113.0947 269.688)" fill="#306632" font-family="'MyriadPro-Bold'" font-size="50.9098" letter-spacing="-2.03">P</text>
<text transform="matrix(0.9851 0 0 1 138.3198 269.688)" fill="#306632" font-family="'MyriadPro-Bold'" font-size="50.9098">aths</text>
<text transform="matrix(0.9851 0 0 1 6.2744 307.9419)" fill="#306632" font-family="'MyriadPro-Bold'" font-size="50.9098">Wisconsin</text>
</svg>
